<?xml version="1.0" standalone="no"?>
<svg viewBox="-350 -150 1500 1500" xmlns="http://www.w3.org/2000/svg" style="width: 487.5px; height: 487.5px; justify-content: center; align-self: center; transform: scale(1, 1);"><g transform="rotate(0 410.36882877349854 602.2961883544922)"><g transform="translate(0 459)"><path d="M21.7014 752.639C26.9744 760.65 37.3464 759.418 41.7994 753.213C92.5054 765.027 144.488 760.371 195.899 757.475C340.772 751.58 486.462 770.058 630.749 750.728C646.055 747.667 663.87 749.13 676.394 738.514C696.425 715.041 692.111 679.402 688.92 650.812C663.343 489.648 626.98 327.006 608.841 164.806C607.828 149.356 614.195 130.159 619.903 115.635C621.313 112.933 630.224 110.285 634.848 107.168C649.039 96.9822 646.738 78.7282 634.436 68.0172C594.605 39.9412 539.157 49.7519 496.905 60.1104C488.807 29.6976 479.705 9.69509 464.288 7.71422C434.943 3.94392 363.76 -7.57751 341.834 7.71422C331.344 15.0297 324.611 40.8069 317.06 53.3642C261.993 52.3862 150.23 -21.2878 127.253 61.6752C108.585 62.9642 90.0954 79.2622 93.6664 98.8202C69.4554 120.214 88.5514 152.293 88.2164 178.922C85.0334 235.421 54.4614 285.949 41.7424 340.527C12.6694 446.382 -20.2366 638.931 15.8224 742.256C15.0464 741.851 13.3514 742.461 14.4494 743.32C18.5324 744.472 19.0634 749.615 21.7014 752.639Z" transform="translate(63.99979 -41.44802)" fill="#FFFFFF" stroke="none"></path><path d="M794.424 692.582C794.405 692.652 794.375 692.732 794.344 692.802C795.164 694.062 795.785 695.462 796.195 696.882C798.454 704.662 793.345 723.472 786.794 727.302C781.034 730.671 774.325 731.112 767.835 731.612C760.545 732.182 753.245 732.732 745.945 733.292C693.534 737.312 641.135 741.892 588.695 745.312C587.631 745.381 586.566 745.455 585.499 745.528C574.464 746.291 563.278 747.063 552.865 742.623C543.875 738.782 536.825 731.802 532.594 723.001C528.255 713.982 526.224 693.312 525.515 683.362C525.294 680.302 525.094 677.192 525.005 674.092C523.264 673.602 521.755 672.251 521.075 669.902C514.935 648.632 513.325 625.332 512.275 603.282C511.245 581.602 510.414 559.962 510.244 538.251C509.634 459.892 514.034 381.562 521.215 303.552C524.815 264.421 528.944 225.342 533.845 186.342C533.955 185.432 534.075 184.532 534.195 183.623C516.635 191.751 497.625 196.222 478.185 196.102C462.674 196.001 445.414 193.352 431.225 185.982C429.835 191.972 428.495 197.972 427.165 203.972C408.915 286.322 397.764 369.972 392.975 454.162C390.585 496.302 389.884 538.542 390.844 580.742C391.314 601.842 392.505 622.932 394.044 643.982C394.805 654.492 395.674 665.012 396.254 675.532C396.581 681.304 396.438 687.083 396.294 692.858C396.267 693.976 396.239 695.094 396.214 696.212C397.085 696.972 397.865 697.862 398.524 698.862C404.904 708.532 407.724 720.421 406.224 731.921C405.404 738.171 401.644 742.953 394.954 743.192C363.065 744.352 331.174 745.512 299.284 746.671C260.078 748.102 220.876 749.789 181.676 751.464C179.012 669.158 173.162 586.973 171.301 504.635C170.726 479.227 170.558 453.81 171.061 428.399C171.162 423.25 163.162 423.25 163.06 428.399C162.893 436.831 162.819 445.261 162.784 453.692C156.792 448.993 150.129 445.267 143.735 441.074C139.417 438.242 135.406 445.166 139.697 447.981C147.281 452.955 155.353 457.129 161.928 463.484C162.195 463.742 162.472 463.939 162.755 464.105C162.902 545.095 168.447 626.027 171.968 706.911C172.619 721.873 173.195 736.837 173.678 751.806C159.073 752.429 144.469 753.049 129.865 753.652C115.914 754.232 101.954 754.682 88.0045 755.182L86.5313 755.235C74.146 755.683 61.5699 756.137 49.3545 753.742C38.0845 751.522 28.2445 745.412 21.8545 735.832C18.8445 731.312 16.8245 726.092 16.2645 720.742C13.7745 721.352 10.6645 720.203 9.64449 717.352C5.62449 706.182 1.26449 695.912 0.324488 683.902C-0.605512 672.112 0.594488 660.421 2.26449 648.762C5.56449 625.852 12.4445 603.732 18.6945 581.512C24.2345 561.782 30.3545 542.192 34.9445 522.203C39.7345 501.302 42.1045 480.382 42.5245 458.942C42.7107 449.282 42.6606 439.622 42.6106 429.963C42.5451 417.314 42.4795 404.667 42.9445 392.022C43.6545 372.462 45.5145 352.982 48.2945 333.602C53.8145 295.142 64.2245 257.212 80.7345 221.972C88.7645 204.812 97.9445 187.782 108.684 172.142C113.984 164.421 119.994 156.852 126.284 149.902C129.094 146.802 131.964 143.703 134.954 140.782C122.884 136.962 114.254 126.972 116.724 112.692C117.984 105.453 122.224 98.8324 127.924 94.2724C128.164 94.0724 128.414 93.8824 128.664 93.7034C122.684 83.8924 126.184 72.1624 132.864 63.7324C140.994 53.4724 153.154 46.1124 166.004 43.8124C165.904 43.5224 165.804 43.2224 165.704 42.9324C162.835 34.1124 166.064 25.0724 173.204 19.3924C184.834 10.1324 200.844 5.37339 215.234 2.58239C231.035 -0.477612 247.154 -0.757612 263.084 1.42139C270.504 2.44239 277.774 4.13239 284.895 6.43239C292.324 8.82239 300.005 11.2514 306.775 15.1524C317.094 21.0824 332.734 30.3524 328.704 44.7124C328.194 46.5124 325.844 45.9534 325.665 44.3024C324.844 36.8224 311.984 33.2924 306.074 30.6234C299.495 27.6424 292.344 24.6924 285.384 22.7514C271.194 18.7824 256.294 17.1624 241.585 17.8024C226.964 18.4424 212.314 21.5624 198.755 27.0624C195.005 28.5824 185.094 31.1524 183.414 35.6234C182.054 39.2224 187.044 43.2124 190.454 45.5824C191.145 46.0724 191.774 46.4924 192.274 46.8224C200.465 52.3224 195.475 67.0824 185.224 63.5324C184.484 63.2724 183.734 63.0624 182.984 62.8924C173.035 60.5824 161.895 65.1024 154.184 71.2124C151.084 73.6624 146.554 77.5524 146.074 81.8324C145.917 83.26 145.931 83.26 146.085 83.2597C146.213 83.2595 146.439 83.2592 146.744 84.0924C146.814 84.2924 146.895 84.4324 146.964 84.5324C147.624 84.2724 148.285 84.0124 148.954 83.7424C153.624 81.8624 158.904 85.4024 160.714 89.5124C162.704 94.0624 160.854 99.4024 156.634 101.962C154.824 103.062 152.944 103.792 151.034 104.203C145.964 106.282 140.124 109.373 137.984 114.072C135.914 118.612 137.794 120.542 142.044 121.421C148.246 122.711 155.467 121.349 161.735 120.167C161.885 120.139 162.035 120.111 162.184 120.082C170.285 118.552 178.264 116.432 186.164 114.082C190.087 112.92 194.025 111.705 197.976 110.487C225.561 101.979 253.823 93.2624 282.574 100.453C282.215 99.5824 281.865 98.7034 281.514 97.8224C280.764 95.9424 283.604 95.0424 284.594 96.5224C286.114 98.7924 287.604 101.082 289.074 103.402C290.044 104.352 290.725 105.482 291.145 106.692C299.215 119.703 306.564 133.312 313.254 147.222C318.854 157.171 323.884 167.432 328.294 177.962C334.065 191.782 338.574 205.932 342.595 220.302C346.134 230.852 349.424 241.482 352.474 252.182C355.544 259.842 359.044 267.032 360.374 275.292C360.594 276.642 360.285 278.032 359.624 279.192C367.004 309.242 372.525 339.751 376.304 370.462C377.435 379.712 378.435 388.972 379.254 398.262C382.025 367.682 385.714 337.182 390.275 306.802C396.635 264.432 404.764 222.322 414.624 180.632C419.235 161.182 423.944 141.692 430.355 122.751C435.344 108.001 441.074 93.0224 449.385 79.7424C443.215 79.2424 437.014 78.8624 430.884 78.1124C421.484 76.9724 412.115 75.6234 402.785 74.0124C393.044 72.3224 383.384 70.1624 373.784 67.7924C364.454 65.5014 355.465 62.0424 346.365 58.9824C344.965 58.5124 345.544 56.5824 346.965 56.8124C366.145 60.0014 385.754 62.0324 405.104 63.9924C405.819 64.0643 406.535 64.1365 407.252 64.2089C423.608 65.8599 440.738 67.5889 457.234 66.8024C459.005 66.7224 460.764 66.6124 462.525 66.4724C468.474 65.9924 471.174 72.9824 468.885 77.5524C463.915 87.4324 458.574 97.1624 454.284 107.352C450.034 117.442 446.595 127.882 443.504 138.373C439.754 151.132 436.435 164.022 433.344 176.972C439.214 178.152 445.075 179.392 451.025 180.072C460.074 181.123 469.084 181.421 478.185 180.892C496.254 179.832 514.214 175.082 530.195 166.552C532.455 165.342 534.665 165.222 536.594 165.822C538.315 153.612 540.214 141.442 542.315 129.312L542.315 129.052C542.884 114.842 544.895 100.742 545.615 86.5424C546.195 75.1524 545.895 63.4824 547.025 52.0824C546.984 51.8924 547.005 51.6924 547.084 51.5124C547.284 49.5524 547.525 47.6024 547.825 45.6624C547.914 45.0524 548.734 45.2034 548.905 45.6624C549.754 47.8524 550.474 50.1024 551.094 52.4024C570.604 60.0224 589.825 68.4324 609.705 75.0924C620.204 78.6124 630.834 81.7424 641.335 85.2514C646.775 87.0624 652.134 89.0124 657.505 91.0224C658.594 91.4324 659.674 91.8024 660.734 92.1714C661.375 91.6424 662.125 91.1714 662.995 90.7724C667.474 88.7034 675.164 87.3524 677.764 82.5524C677.807 82.4686 677.809 82.1721 677.812 81.9284C677.814 81.6512 677.816 81.4423 677.875 81.6924C677.794 81.2624 677.734 80.9724 677.705 80.7924C677.745 80.9924 677.794 81.2424 677.825 81.3024C677.825 81.2514 677.784 80.9624 677.665 80.2324C677.665 80.2224 677.654 80.2324 677.654 80.2324C677.674 80.5724 677.475 80.3624 677.344 80.1124C677.125 80.0224 676.875 79.9534 676.604 79.8924C671.705 78.8524 668.955 73.6324 669.505 69.0224C670.125 63.8024 674.344 60.9424 679.234 60.4324C681.444 60.2034 684.824 60.0724 686.544 58.5224C688.503 56.7557 686.794 55.9682 685.013 55.1471C684.657 54.9829 684.298 54.8174 683.964 54.6424C676.854 50.9324 669.055 48.5324 661.234 46.8924C653.234 45.2124 645.095 44.5424 636.935 44.9214C629.144 45.2924 621.465 48.1234 613.755 48.1524C613.214 48.1524 612.844 47.4124 613.294 47.0324C617.104 43.7724 622.274 42.3824 627.025 41.0324C632.495 39.4724 638.094 38.4324 643.755 37.8124C654.965 36.5724 666.334 37.3024 677.294 39.9324C686.935 42.2514 700.784 45.3024 701.905 57.1624C702.505 63.4624 699.984 68.1624 696.065 71.7824C697.984 76.0724 698.724 80.9924 698.084 85.4324C696.604 95.7124 687.955 103.442 678.445 107.542C678.415 107.792 678.365 108.042 678.324 108.282C676.655 117.222 673.885 126.182 671.174 134.862C669.625 139.852 668.034 144.822 666.404 149.782C688.745 174.602 705.185 204.632 716.695 235.873C744.385 311.022 741.034 392.142 755.145 470.052C762.334 509.742 775.575 547.842 784.945 587.001C789.674 606.772 793.634 626.712 795.474 646.982C796.345 656.612 796.695 666.292 796.365 675.953C796.174 681.382 796.135 687.402 794.424 692.582ZM586.684 343.882C568.594 416.373 556.454 490.162 550.504 564.642C549.294 579.762 548.444 594.862 547.964 609.972C547.484 613.912 547.024 617.862 546.594 621.812C544.964 636.751 543.714 651.932 543.824 666.972C543.874 673.722 544.084 680.442 544.544 687.171C543.744 684.921 543.004 682.662 542.284 680.412C540.814 675.802 539.844 671.022 538.344 666.442C537.104 662.652 535.504 659.022 534.014 655.352L534.014 655.342C534.351 644.088 533.864 632.756 533.38 621.489C533.217 617.71 533.055 613.94 532.924 610.182C532.254 590.802 531.424 571.442 530.994 552.052C530.134 513.272 530.564 474.462 531.964 435.703C534.774 357.602 541.874 279.873 549.034 202.092C551.024 180.462 553.164 158.842 554.644 137.171C556.134 115.272 556.734 93.3324 556.904 71.3734C556.914 69.7924 554.514 69.3734 554.074 70.9024C553.684 65.6924 552.995 60.4924 551.844 55.4624C569.094 66.4624 587.284 75.9724 605.115 85.9724C614.505 91.2424 623.854 96.6024 633.534 101.322C638.854 103.921 644.224 106.312 649.704 108.572C650.611 108.946 651.512 109.342 652.41 109.737C657.139 111.817 661.812 113.872 667.064 112.501C667.604 112.362 668.115 112.162 668.604 111.902C667.894 113.251 667.185 114.592 666.505 115.953C664.145 120.642 661.894 125.352 659.714 130.102C659.135 130.532 658.625 131.123 658.224 131.892C657.164 133.962 656.135 136.052 655.134 138.171C654.935 137.982 654.734 137.792 654.534 137.602C653.695 136.812 652.534 138.001 653.274 138.862C653.615 139.251 653.945 139.632 654.274 140.022C647.755 154.052 642.454 168.802 636.995 183.203C630.284 200.902 623.924 218.732 617.934 236.682C606.125 271.992 595.704 307.762 586.684 343.882ZM656.703 374.626C646.253 381.017 632.531 376.584 622.188 372.352C617.479 370.425 619.553 362.689 624.315 364.638L624.416 364.68C632.284 367.9 643.725 372.582 651.997 368.109C660.287 363.625 660.661 351.291 660.724 343.152C660.763 337.998 668.761 338.002 668.724 343.152C668.64 354.225 667.159 368.23 656.703 374.626ZM215.444 397.839C213.711 397.71 212.027 396.705 211.587 394.903C208.886 383.845 206.771 371.799 209.283 360.52C210.403 355.489 218.114 357.63 216.997 362.646C215.016 371.54 216.59 381.154 218.647 390.023C241.547 391.026 264.205 384.767 286.388 378.64C292.374 376.987 298.325 375.343 304.236 373.854C309.24 372.594 311.352 380.312 306.363 381.568C300.41 383.068 294.415 384.717 288.384 386.377C264.521 392.943 240.096 399.664 215.444 397.839ZM695.284 536.687C695.338 591.434 700.041 656.977 706.804 711.271C707.432 716.312 715.44 716.375 714.804 711.271C708.041 656.977 703.338 591.434 703.284 536.687C703.279 531.54 695.279 531.531 695.284 536.687ZM610.581 600.914C617.821 610.292 626.818 617.68 637.36 623.084C641.933 625.429 645.987 618.529 641.398 616.177C632.164 611.443 623.862 605.13 617.49 596.876C614.388 592.858 607.435 596.837 610.581 600.914ZM233.591 669.165C263.557 646.15 294.714 624.812 328.055 606.957C332.595 604.525 328.56 597.617 324.017 600.048C290.676 617.904 259.52 639.243 229.553 662.257C225.526 665.349 229.507 672.302 233.591 669.165Z" transform="translate(11.99981 -26.99999)" fill="#000000" fill-rule="evenodd" stroke="none"></path></g><g transform="translate(225 0)"><g><g><path d="M252.793 0C297.565 0 351.283 21.7046 355.85 22.1387L355.973 22.1453C358.376 22.1453 367.765 29.2985 384.141 43.6049L366.404 78.1989L367.84 79.5695C374.708 86.1548 380.572 92.1572 385.201 96.8888C422.992 135.523 429.785 287.213 420.878 340.112C411.972 393.011 395.476 444.774 318.678 444.774C241.879 444.774 156.439 398.596 143.278 384.216C134.503 374.63 124.647 370.037 113.71 370.438C113.26 369.87 112.815 369.305 112.372 368.741L110.763 368.513C95.6259 366.321 84.7798 363.37 78.2251 359.662C65.4219 352.418 51.3497 314.339 51.3497 305.951C51.3497 297.646 30.3369 237.234 29.9167 230.841L29.9103 230.664C29.9103 225.319 2.45921 200.752 2.45921 192.95C2.45921 185.147 -3.07401 185.621 2.45921 158.127L4.06676 150.05C9.95497 120.778 21.4798 72.3064 65.4219 51.2442C113.71 28.0989 207.57 0 252.793 0Z" transform="translate(-7.992421 58.70615)" fill="#FFFFFF" stroke="none"></path><path d="M294.952 1.14476C225.78 -7.23636 89.0586 32.3017 64.9759 57.8635C33.2369 83.9005 9.06486 144.648 1.68586 171.493C-0.0351405 179.159 -0.806141 187.687 1.16686 195.963C2.83758 206.706 8.84988 217.802 15.2437 226.989C15.2209 226.951 15.2529 226.872 15.3112 226.763L15.3959 226.613C18.083 230.297 21.3818 234.904 24.3887 239.009L25.6569 240.733C25.6519 240.764 25.6363 240.821 25.618 240.886C25.5455 241.147 25.4312 241.559 25.772 241.147L25.9069 240.973C26.1669 241.193 26.5069 241.413 26.8859 241.623L27.6159 242.633C28.2069 243.093 28.8369 243.473 29.5069 243.793C30.1569 244.153 30.8459 244.433 31.5559 244.643C31.5959 244.643 31.6269 244.643 31.6569 244.633C30.7849 278.287 38.5211 293.702 45.069 306.749C48.7185 314.021 51.9988 320.557 53.2139 329.105C54.8469 346.847 61.1629 363.303 77.2319 372.203C95.3989 382.161 124.768 394.314 139.457 381.593C148.24 393.149 159.311 403.525 171.957 411.693C173.846 413.233 175.826 414.603 177.877 415.833C180.056 417.403 182.247 418.953 184.417 420.533C186.887 421.903 189.467 423.063 192.137 424.013C192.417 424.143 192.556 424.093 192.627 423.953C193.467 424.293 194.306 424.603 195.177 424.873C196.195 425.318 195.622 423.987 195.218 423.193L195.056 422.883C195.627 423.093 196.197 423.293 196.777 423.483C197.157 423.533 197.366 423.373 197.387 422.993C197.266 422.313 196.967 421.713 196.476 421.203C196.016 420.553 195.497 419.783 194.927 419.073C195.407 419.263 195.896 419.463 196.387 419.643L196.493 419.685C197.388 419.978 196.612 418.177 196.497 418.003C196.476 417.983 196.467 417.963 196.447 417.933C196.797 418.063 197.146 418.203 197.497 418.323C198.297 418.683 198.717 418.333 198.527 417.493C198.146 416.803 197.697 416.153 197.186 415.563C196.707 414.933 196.167 414.363 195.567 413.853L193.527 412.873L193.391 412.745L193.257 412.623C193.317 412.523 193.356 412.423 193.356 412.343C187.491 407.509 177.881 404 171.616 398.543C169.927 397.363 168.297 396.113 166.686 394.843C151.957 381.107 140.56 363.67 131.737 345.112C130.573 344.178 129.592 345.583 130.826 347.303C130.6 347.187 130.383 346.609 130.124 345.922C129.557 344.416 128.793 342.384 127.311 343.532C127.302 343.593 127.294 343.648 127.287 343.697C127.245 343.98 127.229 344.09 127.255 344.188C127.298 344.355 127.462 344.491 127.826 345.403C127.825 345.511 127.824 345.603 127.824 345.682C127.821 345.965 127.819 346.085 127.848 346.197C127.904 346.417 128.074 346.607 128.567 347.922L128.737 348.383C128.587 348.403 128.417 348.453 128.266 348.543C128.655 348.254 123.731 341.214 124.606 346.073C124.564 346.059 124.552 346.054 124.539 346.054C124.533 346.053 124.527 346.055 124.516 346.056C124.502 346.059 124.48 346.062 124.441 346.066L124.286 346.073C124.313 345.574 121.762 344.607 122.667 346.983C122.577 346.963 122.515 346.889 122.438 346.799C122.231 346.556 121.922 346.194 120.697 346.443C81.5229 354.093 71.6599 274.957 109.887 266.673C110.137 266.853 110.536 266.823 110.646 266.483C119.636 263.959 132.39 265.438 138.587 274.963C138.28 275.907 143.464 279.537 140.257 274.353C140.507 274.603 140.757 274.783 141.007 274.853C141.421 276.754 146.1 280.48 142.917 274.563C142.947 274.563 142.987 274.553 143.027 274.543C143.419 276.329 148.398 278.776 144.826 273.683C160.7 268.433 158.187 253.529 155.802 239.385C155.006 234.664 154.225 230.028 154.146 225.863C158.396 203.789 158.557 190.282 180.627 175.303C196.104 161.186 196.186 135.831 214.266 122.973C232.692 108.85 256.307 106.499 279.141 105.031L287.561 104.506C314.516 102.994 340.797 101.399 367.677 99.9335C369.516 100.543 371.356 101.063 373.217 101.533C378.636 103.113 384.136 104.133 389.707 104.583C391.697 107.543 393.547 110.583 395.277 113.703C397.786 117.863 400.067 122.163 402.106 126.583C423.072 172.469 427.338 224.568 427.846 275.258L427.873 278.359C429.612 436.884 322.225 487.363 248.226 430.473C247.586 430.246 246.859 429.399 246.059 428.468C244.748 426.941 243.244 425.188 241.616 425.573C241.322 424.346 237.133 422.478 239.377 425.623C239.333 425.694 239.292 425.759 239.254 425.819C238.842 426.468 238.789 426.552 239.755 427.499L240.837 428.543C240.766 428.683 240.747 428.813 240.766 428.943C239.606 427.843 238.467 426.713 237.346 425.533L237.012 425.371C234.491 424.2 235.502 426.034 237.188 427.832L237.246 427.892L237.059 427.742C236.694 427.458 236.226 427.135 235.606 426.763C235.467 426.613 235.326 426.483 235.197 426.333C232.27 425.813 234.84 428.474 236.823 430.309L237.877 431.263C237.856 431.393 237.866 431.513 237.917 431.633C236.797 430.553 235.697 429.453 234.627 428.323C232.097 429.226 236.684 433.118 240.421 436.289C241.995 437.624 243.417 438.83 244.096 439.633C284.463 474.319 340.731 473.379 376.652 445.404C436.114 401.256 443.6 319.705 440.606 251.433C439.706 215.498 433.561 178.844 423.686 143.623C418.035 129.628 411.054 114.914 402.237 101.903C403.286 99.3635 404.106 96.9135 404.457 94.2535C407.246 86.5525 405.706 76.8925 401.579 69.0735C410.462 51.5634 388.198 39.3046 372.762 30.8053C368.858 28.656 365.391 26.7471 362.975 25.0545C348.636 14.8035 330.71 8.66647 313.356 4.61347C307.987 3.17347 302.547 2.11347 297.027 1.41347L294.952 1.14476ZM156.839 33.4435C201.601 20.9345 247.738 10.6005 294.646 14.6335C298.377 14.7135 302.047 15.2035 305.667 16.0935C323.142 19.7765 341.23 24.9985 357.008 34.6495C364.927 37.5245 372.615 40.9075 379.392 45.9865C369.953 44.0345 360.964 39.8325 351.532 38.9945C350.641 38.6935 349.75 38.3955 348.859 38.1005C287.723 32.0575 199.849 49.1955 167.661 88.7365C132.051 131.723 110.594 207.831 109.657 252.943C63.9789 259.716 60.1489 331.365 97.2069 352.413C100.458 355.065 105.481 357.741 110.226 358.793C110.707 358.893 111.197 358.973 111.686 359.053C113.161 359.496 114.81 359.973 117.427 360.133L117.924 360.171C120.24 360.312 122.503 360.009 124.707 359.253C125.326 359.113 125.297 358.703 125.076 358.293C125.417 358.203 125.747 358.123 126.076 358.013C126.887 359.713 127.737 361.393 128.616 363.053C128.657 363.123 128.697 363.183 128.726 363.243C127.639 363.768 127.866 364.364 128.613 365.592L129.346 366.783C121.167 368.545 112.049 366.058 103.699 362.907L102.614 362.492C76.146 353.704 74.3219 342.648 72.0485 328.869C70.8792 321.782 69.5911 313.975 64.7709 305.385C41.5398 267.317 43.145 239.43 44.824 210.262C45.509 198.36 46.2064 186.246 45.2339 173.139C43.0119 173.481 43.7919 174.34 42.7609 176.962C37.8209 193.745 34.6599 210.664 32.8059 228.093C14.9859 210.554 8.94086 182.231 20.7659 157.113C34.3079 123.306 49.8259 86.6905 79.8769 63.6735C101.386 48.1287 128.299 41.5935 153.751 34.331L156.839 33.4435ZM223.167 35.1131C215.938 30.6631 195.125 25.2621 210.925 36.6171C223.019 46.7931 228.094 39.4581 223.167 35.1131ZM165.699 48.5083C155.76 37.6549 182.359 48.0521 186.343 50.9381L186.457 51.0233C189.43 53.1163 188.827 57.6243 186.034 58.9483C180.277 59.0576 175.622 55.6122 171.007 52.1967C169.251 50.897 167.501 49.6017 165.699 48.5083ZM140.627 75.682C134.193 73.5444 119.499 68.6624 120.798 73.5932C129.818 78.5722 139.693 83.0132 148.7 88.8992C153.093 91.5922 160.185 90.3572 156.681 84.3952C153.691 80.0803 147.959 78.3519 142.959 76.4889L142.176 76.1932C141.743 76.0526 141.22 75.879 140.627 75.682ZM118.811 125.522L115.534 123.39C97.8503 111.816 72.8511 94.2793 117.186 112.423C122.239 114.59 128.953 115.872 131.71 120.684C136.041 129.553 124.643 130.149 118.811 125.522ZM102.079 162.351C104.084 150.029 79.0213 140.725 70.5363 143.833C66.6403 145.531 68.2203 149.397 71.8903 151.218C78.633 154.887 84.2971 158.575 90.5774 162.781L94.1863 165.204C96.9513 166.801 100.885 165.18 102.079 162.351ZM107.566 289.183C109.2 288.296 109.623 288.569 109.889 288.741C110.023 288.828 110.117 288.889 110.306 288.763C127.972 287.322 147.021 302.789 156.896 315.683C156.182 316.425 154.355 314.478 153.766 313.851C153.712 313.792 153.668 313.746 153.636 313.713C153.586 313.763 153.526 313.803 153.466 313.823L153.741 314.211C157.744 319.955 149.809 313.196 149.066 311.803C148.936 311.873 148.806 311.913 148.656 311.883C149.285 312.5 151.206 314.109 151.536 315.253L152.045 315.677C156.848 319.79 156.449 322.883 150.997 317.043C151.126 317.313 151.176 317.563 151.086 317.763L151.274 317.888C153.955 319.762 156.16 324.985 150.556 319.623C151.01 322.672 147.392 318.76 145.674 316.902C145.185 316.374 144.85 316.012 144.806 316.023C134.188 307.688 118.555 299.582 105.236 298.493L104.778 298.441C102.334 298.127 101.178 297.401 102.036 295.803C99.0262 295.087 99.7312 293.605 101.156 293.653C99.0332 292.257 100.944 290.922 102.176 291.443C101.58 289.792 103.087 290.078 104.14 290.278C104.583 290.362 104.944 290.43 105.036 290.333C106.23 288.492 106.833 288.938 107.189 289.2C107.358 289.325 107.472 289.409 107.566 289.183ZM238.524 429.117L238.123 428.76L238.475 429.201C238.66 429.429 238.849 429.634 239.157 429.843C239.137 429.773 239.137 429.703 239.146 429.623C238.942 429.468 238.733 429.297 238.524 429.117Z" transform="translate(-14.99996 50.99953)" fill="#000000" fill-rule="evenodd" stroke="none"></path></g></g><g transform="translate(159 186)"><g><path d="M139.603 3.56553C135.664 -1.94347 124.939 -1.13147 123.503 6.43953C120.915 20.0849 135.421 20.5 145.678 20.7936C146.541 20.8183 147.374 20.8421 148.164 20.8729L150.534 20.9796C162.089 21.4589 173.382 20.7633 184.867 19.2685C185.682 19.1615 185.915 18.0855 185.067 17.7945C176.838 14.9775 168.67 11.9555 160.3 9.57154C156.258 8.42054 152.225 7.23253 148.195 6.03753C145.882 5.35153 142.149 4.43953 139.603 3.56553ZM73.5171 5.04064C78.9371 3.07164 84.5701 7.67964 85.2731 12.8726C86.0826 18.8569 81.7664 22.7969 76.2956 23.5116L76.0211 23.5446C63.9451 24.8746 51.9601 27.3066 39.8681 28.6816C34.3763 29.3053 28.8431 29.7157 23.3145 29.8633L19.3635 29.9521C14.5218 30.0745 9.32892 30.1849 4.8591 28.5176L4.8761 28.4876C3.6891 28.1436 3.1431 26.4316 4.4641 25.4956C9.2231 22.1306 15.6381 20.8586 21.1781 19.2596C26.7481 17.6506 32.3591 16.1676 37.9851 14.7746C49.7991 11.8526 62.0711 9.19864 73.5171 5.04064ZM153.46 39.688L153.152 39.7187C147.74 40.2421 138.511 40.3887 134.767 44.8451C133.854 45.931 133.717 47.111 134.31 48.382C136.276 52.5989 143.689 53.5632 149.03 54.0353L150.816 54.1861C150.479 55.1711 150.195 56.1691 149.879 57.062L149.804 57.2893C148.184 62.4353 153.301 67.2333 158.238 66.5701C163.551 65.856 166.167 60.2691 163.962 55.591C168.276 55.9891 172.602 56.1911 176.708 55.7751C187.893 54.6421 187.912 39.4961 176.708 38.3571C170.637 37.7389 164.074 38.4903 157.823 39.2059C156.348 39.3748 154.89 39.5416 153.46 39.688ZM56.7411 44.2924L58.0752 44.1806C58.7215 44.1236 59.3688 44.0633 60.0166 44.0029C65.1694 43.5229 70.3594 43.0394 75.4291 44.2024C83.0961 45.9624 82.534 57.1164 75.4291 59.1674C70.6988 60.5324 65.5823 60.4201 60.576 60.3102L60.5758 60.3102C58.9547 60.2746 57.3452 60.2393 55.7641 60.2544C54.7471 60.2645 53.7321 60.2905 52.7161 60.3074C52.5161 62.7244 51.7231 64.8084 50.5091 66.8904C49.6391 68.3845 48.5291 69.8035 47.4371 71.1304C44.8411 74.2845 38.7181 74.2135 36.0981 71.1304C34.1601 68.8484 32.6171 66.2234 32.5921 63.1345C32.5861 62.3435 32.6821 61.5034 32.8711 60.6775L29.343 60.7391C20.7079 60.8709 12.0069 60.8124 3.52806 59.4405C0.512058 60.0644 -1.95594 54.6224 2.20706 52.9935C13.5241 48.5674 26.1671 47.2645 38.1761 45.9354C44.3471 45.2514 50.5521 44.7804 56.7411 44.2924ZM129.748 115.04C137.871 103.66 126.365 92.9574 118.814 88.3673C116.836 86.9473 118.406 82.2436 122.633 82.9706C161.03 89.5676 141.135 155.708 92.1117 119.413C86.2751 114.705 93.3431 104.334 99.6339 108.366C99.9529 108.611 100.287 108.87 100.636 109.139C107.704 114.603 120.635 124.601 129.748 115.04ZM130.466 158.065C131.041 157.555 130.43 156.623 129.736 156.811C127.323 157.463 124.665 157.129 122.201 157.654C119.792 158.168 117.487 159.054 115.268 160.113C110.239 162.516 105.743 165.796 101.728 169.649C97.1376 174.054 92.6206 179.992 92.7836 186.656C92.9906 195.127 100.433 202.25 109.107 199.635C114.178 198.106 118.674 192.027 116.532 186.557L116.469 186.393C116.253 185.814 115.959 184.932 115.584 184.039L115.832 183.407C117.086 180.274 118.642 177.324 120.253 174.363C121.69 171.721 123.265 169.223 124.899 166.699C126.617 164.046 128.112 160.154 130.466 158.065ZM113.387 180.961C114.023 181.261 114.566 181.994 115.023 182.85C114.795 182.124 114.324 181.402 113.387 180.961Z" transform="translate(52 55.99988)" fill="#000000" fill-rule="evenodd" stroke="none"></path></g></g><g transform="translate(123 338)"></g><g transform="translate(47 241)"></g></g></g></svg>